<mxfile host="app.diagrams.net" modified="2024-06-17T07:22:13.925Z" agent="Mozilla/5.0 (Windows NT 10.0; Win64; x64) AppleWebKit/537.36 (KHTML, like Gecko) Chrome/126.0.0.0 Safari/537.36" version="24.5.4" etag="unKPUktQqW-dbhd2HRyK" type="github">
  <diagram name="Page-1" id="RZwyvc6ZlYqgCP0ZAdyA">
    <mxGraphModel>
      <root>
        <mxCell id="0" />
        <mxCell id="1" parent="0" />
      </root>
    </mxGraphModel>
  </diagram>
</mxfile>
